<?xml version="1.0" standalone="no"?>
<!DOCTYPE svg PUBLIC "-//W3C//DTD SVG 20010904//EN"
 "http://www.w3.org/TR/2001/REC-SVG-20010904/DTD/svg10.dtd">
<svg version="1.0" xmlns="http://www.w3.org/2000/svg"
 width="512.000000pt" height="512.000000pt" viewBox="0 0 512.000000 512.000000"
 preserveAspectRatio="xMidYMid meet">
<metadata>
Created by potrace 1.14, written by Peter Selinger 2001-2017
</metadata>
<g transform="translate(0.000000,512.000000) scale(0.100000,-0.100000)"
fill="#000000" stroke="none">
<path d="M2245 5085 c-14 -13 -25 -32 -26 -42 0 -10 -2 -27 -3 -38 -2 -11 -6
-53 -10 -93 -4 -41 -9 -81 -11 -90 -1 -9 -6 -53 -10 -97 -4 -44 -8 -81 -10
-83 -1 -1 -12 -5 -24 -7 -13 -2 -30 -6 -39 -9 -9 -3 -29 -7 -43 -10 -162 -28
-461 -151 -632 -262 l-69 -45 -174 132 c-161 121 -176 131 -207 125 -26 -5
-75 -49 -236 -211 -201 -201 -204 -204 -198 -239 4 -23 25 -59 59 -99 29 -35
69 -83 89 -108 20 -24 53 -64 73 -88 33 -40 35 -46 23 -65 -144 -222 -257
-484 -317 -733 -22 -92 -23 -93 -54 -94 -17 0 -40 -2 -51 -4 -11 -2 -47 -7
-80 -10 -107 -11 -202 -23 -246 -31 -45 -9 -49 -34 -49 -330 l0 -275 26 -24
c15 -14 39 -25 53 -26 14 0 33 -2 41 -3 14 -3 43 -6 195 -23 33 -3 69 -7 80
-8 11 -1 32 -3 46 -4 24 -1 27 -7 49 -103 48 -218 129 -418 245 -613 l72 -120
-20 -30 c-12 -16 -58 -77 -103 -136 -113 -145 -134 -178 -134 -207 0 -20 45
-71 202 -229 112 -112 213 -206 225 -209 29 -8 44 1 225 141 l160 123 106 -65
c59 -36 148 -84 197 -108 105 -51 324 -125 443 -150 71 -15 82 -21 83 -39 0
-12 2 -30 4 -41 2 -11 8 -60 15 -110 6 -50 13 -101 15 -115 2 -14 6 -50 10
-80 4 -41 12 -61 31 -78 25 -22 29 -22 310 -22 l285 0 23 23 c16 16 26 41 31
78 3 30 8 65 10 79 2 14 7 60 10 103 4 43 10 100 14 125 l6 46 130 33 c72 18
139 37 150 42 11 5 55 21 97 36 96 33 280 126 376 188 61 40 75 46 87 35 19
-18 30 -26 105 -83 36 -27 67 -52 70 -55 3 -3 37 -29 76 -58 71 -51 99 -61
132 -43 18 10 388 379 403 402 27 42 -2 88 -237 373 -22 27 -23 32 -9 53 40
60 105 171 105 178 0 5 6 16 13 24 22 26 103 218 135 321 27 86 55 191 68 260
3 13 6 25 7 26 1 1 32 5 69 8 37 4 77 9 90 11 13 2 52 7 88 10 36 4 74 8 85 9
11 2 33 4 48 5 15 0 39 12 52 26 l25 24 0 281 0 281 -25 24 c-13 14 -37 25
-52 26 -15 0 -37 2 -48 4 -11 2 -49 7 -85 11 -36 3 -78 8 -95 10 -16 2 -60 7
-96 10 l-67 7 -17 81 c-54 248 -143 465 -283 685 l-41 65 22 30 c12 17 68 91
124 165 103 134 120 164 109 198 -3 10 -98 110 -210 222 -191 190 -206 203
-233 196 -15 -3 -30 -10 -33 -14 -11 -15 -315 -244 -325 -244 -5 0 -44 21 -85
48 -90 58 -300 162 -360 179 -3 1 -41 14 -85 28 -81 27 -209 61 -277 72 -30 6
-38 12 -39 29 0 12 -2 29 -3 37 -2 8 -6 47 -10 85 -6 64 -15 140 -21 190 -1
11 -3 33 -4 48 0 15 -12 39 -26 52 l-24 25 -281 0 -281 0 -24 -25z"/>
</g>
</svg>
